<svg xmlns="http://www.w3.org/2000/svg" viewBox="0 0 96 96"><rect width="96" height="96" rx="16" fill="#0c4a6e"/><rect x="1.5" y="1.5" width="93" height="93" rx="16" fill="none" stroke="rgba(255,255,255,.22)" stroke-width="3"/><g shape-rendering="crispEdges"><rect x="40" y="0" width="8" height="8" fill="#f5d24a"/><rect x="40" y="8" width="8" height="8" fill="#f5d24a"/><rect x="16" y="16" width="64" height="8" fill="#a1a7b3"/><rect x="8" y="24" width="8" height="8" fill="#a1a7b3"/><rect x="16" y="24" width="64" height="8" fill="#5b6675"/><rect x="80" y="24" width="8" height="8" fill="#a1a7b3"/><rect x="8" y="32" width="8" height="8" fill="#a1a7b3"/><rect x="16" y="32" width="8" height="8" fill="#5b6675"/><rect x="24" y="32" width="8" height="8" fill="#4fd0e0"/><rect x="32" y="32" width="32" height="8" fill="#5b6675"/><rect x="64" y="32" width="8" height="8" fill="#4fd0e0"/><rect x="72" y="32" width="8" height="8" fill="#5b6675"/><rect x="80" y="32" width="8" height="8" fill="#a1a7b3"/><rect x="8" y="40" width="8" height="8" fill="#a1a7b3"/><rect x="16" y="40" width="64" height="8" fill="#5b6675"/><rect x="80" y="40" width="8" height="8" fill="#a1a7b3"/><rect x="8" y="48" width="8" height="8" fill="#a1a7b3"/><rect x="16" y="48" width="16" height="8" fill="#5b6675"/><rect x="32" y="48" width="32" height="8" fill="#0b0f14"/><rect x="64" y="48" width="16" height="8" fill="#5b6675"/><rect x="80" y="48" width="8" height="8" fill="#a1a7b3"/><rect x="8" y="56" width="8" height="8" fill="#a1a7b3"/><rect x="16" y="56" width="64" height="8" fill="#5b6675"/><rect x="80" y="56" width="8" height="8" fill="#a1a7b3"/><rect x="16" y="64" width="64" height="8" fill="#a1a7b3"/><rect x="24" y="72" width="8" height="8" fill="#a1a7b3"/><rect x="64" y="72" width="8" height="8" fill="#a1a7b3"/><rect x="16" y="80" width="16" height="8" fill="#a1a7b3"/><rect x="64" y="80" width="16" height="8" fill="#a1a7b3"/></g></svg>